<svg width="17" height="16" viewBox="0 0 17 16" fill="none" xmlns="http://www.w3.org/2000/svg">
<path d="M11.5059 14.6662H11.5246C11.8766 14.6662 12.2092 14.5275 12.4612 14.2755L14.2692 12.4675C14.3312 12.4056 14.3804 12.3322 14.4139 12.2513C14.4475 12.1704 14.4647 12.0837 14.4647 11.9962C14.4647 11.9086 14.4475 11.8219 14.4139 11.741C14.3804 11.6602 14.3312 11.5867 14.2692 11.5248L11.6026 8.85816C11.5407 8.7962 11.4673 8.74704 11.3864 8.7135C11.3055 8.67996 11.2188 8.6627 11.1312 8.6627C11.0437 8.6627 10.957 8.67996 10.8761 8.7135C10.7952 8.74704 10.7218 8.7962 10.6599 8.85816L9.59725 9.92083C9.10458 9.77416 8.18525 9.44083 7.60258 8.85816C7.01992 8.2755 6.68658 7.35616 6.53992 6.8635L7.60258 5.80083C7.66455 5.73897 7.7137 5.6655 7.74724 5.58462C7.78079 5.50375 7.79805 5.41705 7.79805 5.3295C7.79805 5.24194 7.78079 5.15524 7.74724 5.07437C7.7137 4.99349 7.66455 4.92002 7.60258 4.85816L4.93592 2.1915C4.80847 2.0712 4.63984 2.00419 4.46458 2.00419C4.28932 2.00419 4.1207 2.0712 3.99325 2.1915L2.18592 3.9995C1.93258 4.25283 1.78992 4.60083 1.79525 4.95616C1.81058 5.9055 2.06192 9.20283 4.66058 11.8015C7.25925 14.4002 10.5566 14.6508 11.5059 14.6662V14.6662ZM4.46525 3.6055L6.18925 5.3295L5.32725 6.1915C5.24881 6.26972 5.19118 6.36633 5.15963 6.47253C5.12807 6.57872 5.12359 6.69113 5.14658 6.7995C5.16258 6.87616 5.55392 8.69416 6.66058 9.80083C7.76725 10.9075 9.58525 11.2988 9.66192 11.3148C9.77028 11.3379 9.88272 11.3335 9.98893 11.302C10.0952 11.2704 10.1918 11.2127 10.2699 11.1342L11.1319 10.2722L12.8559 11.9962L11.5186 13.3328C10.6866 13.3188 7.83992 13.0955 5.60325 10.8582C3.35925 8.61416 3.14192 5.7575 3.12858 4.94216L4.46525 3.6055ZM13.7946 7.33283H15.1279C15.1279 3.91283 12.5459 1.3335 9.12125 1.3335V2.66683C11.8292 2.66683 13.7946 4.62883 13.7946 7.33283V7.33283Z" fill="#1D1D1F"/>
<path d="M9.12791 5.33333C10.5299 5.33333 11.1279 5.93133 11.1279 7.33333H12.4612C12.4612 5.18333 11.2779 4 9.12791 4V5.33333V5.33333Z" fill="#1D1D1F"/>
</svg>
