<svg width="351" height="66" viewBox="0 0 351 66" fill="none" xmlns="http://www.w3.org/2000/svg">
<path d="M27.6484 6.66115C27.214 6.22535 26.6822 5.97965 26.0902 5.97965C25.8938 5.97965 25.6964 6.01779 25.5189 6.05492C25.3215 5.26082 24.8088 4.61645 23.941 3.95403C23.3894 3.53791 22.7982 3.27233 22.7584 2.79839H27.6484V6.66115ZM8.89802 10.3147C8.40427 9.61416 7.83286 8.98968 7.22183 8.49666V8.4784C7.22183 6.98293 6.3342 6.131 5.506 5.33609C4.89496 4.72987 4.59936 4.42716 4.59936 3.91589C4.59936 3.12098 5.21039 2.79839 6.09802 2.79839H8.89802V10.3147ZM50.7767 13.5903V2.79839H52.8475C53.8914 2.79839 54.2669 3.93496 54.2669 5.6388V13.2495L56.6129 13.5903V6.33957C56.6129 4.9573 56.7119 3.76454 56.9876 2.79839H58.7811L58.3675 0.924122H55.134C54.9762 1.34186 54.8384 1.75778 54.7195 2.17472C54.3255 1.32279 53.793 0.924122 52.9648 0.924122H52.5312H52.1573H37.5669H37.1524H34.3325C34.1749 1.34186 34.0369 1.75778 33.9188 2.17472C33.5234 1.32279 32.9916 0.924122 32.1634 0.924122H31.7291H31.3549H18.8157H18.4012H15.5806C15.4237 1.34186 15.2858 1.75778 15.1677 2.17472C14.7722 1.32279 14.2404 0.924122 13.4122 0.924122H12.9795H12.6039H0.952148L1.36585 2.79839H2.09497C2.01651 2.98789 1.97609 3.21613 1.97609 3.44276C1.97609 4.4089 2.60694 4.93823 3.14032 5.39249C4.1064 6.20627 4.65799 6.75549 4.77688 7.45606H4.75706C3.55401 7.45606 2.72582 8.25097 2.72582 9.21711C2.72582 10.2386 3.61345 11.0526 4.83631 11.0526C5.4862 11.0526 6.07741 10.826 6.51173 10.39C7.49682 11.0344 8.30679 11.9616 8.89802 13.2495L11.2439 13.5903V2.79839H13.0184H13.2941C14.3395 2.79839 14.7144 3.93496 14.7144 5.6388V13.2495L17.0602 13.5903V6.33957C17.0602 4.9573 17.1593 3.76454 17.4343 2.79839H18.8157H19.2294H20.136C20.2351 3.87876 20.9642 4.29468 22.5018 5.12773C23.3695 5.6388 23.7055 6.05492 23.7055 6.71755C23.7055 7.07727 23.5866 7.39904 23.3109 7.72163C23.2316 7.79691 23.1524 7.89206 23.054 7.98559C22.0889 8.93266 21.733 9.06576 21.4571 9.06576C21.2408 9.06576 20.984 8.98967 20.7074 8.38426L19.2682 9.33052C19.88 10.6935 20.8461 11.2999 21.8716 11.2999C22.5612 11.2999 23.3109 11.0153 24.4933 9.85986C25.4396 8.95174 25.9135 8.19477 26.5445 8.19477C27.0763 8.19477 27.6484 8.70604 27.6484 9.68943V13.2495L29.995 13.5903V2.79839H31.7694H32.0453C33.0906 2.79839 33.4656 3.93496 33.4656 5.6388V13.2495L35.8113 13.5903V6.33957C35.8113 4.9573 35.9105 3.76454 36.1863 2.79839H37.5669H37.9806H48.4309V5.52478C47.819 4.82502 47.0701 4.5215 46.2616 4.5215C45.3549 4.5215 44.6448 4.91997 44.1908 5.61993C43.5608 4.88122 42.6928 4.44603 41.5682 4.44603C39.5972 4.44603 38.1581 5.80922 38.1581 7.83505C38.1581 10.2198 40.1886 12.1693 42.2595 12.1693C43.5608 12.1693 44.3096 11.4123 44.3096 10.4661C44.3096 9.53808 43.5995 8.85658 42.6928 8.85658C41.8251 8.85658 41.1943 9.46281 41.1943 10.1824C40.6806 9.89861 40.3463 9.31146 40.3463 8.57356C40.3463 7.45606 41.115 6.73662 42.1801 6.73662C43.0877 6.73662 43.7184 7.30389 43.7184 8.19477L45.6101 8.5348C45.6101 7.47431 46.1236 6.66115 46.9518 6.66115C47.7802 6.66115 48.4309 7.55121 48.4309 9.48188V13.2495L50.7767 13.5903Z" fill="#B81E25"/>
<path d="M70.0808 10.6746C68.9957 9.46278 67.5763 8.30816 65.9991 7.58852C67.3195 6.88795 68.7389 6.33955 70.0808 5.96056V10.6746ZM109.456 10.6746C108.371 9.46278 106.951 8.30816 105.373 7.58852C106.695 6.88795 108.115 6.33955 109.456 5.96056V10.6746ZM80.412 2.79837H85.676C84.6117 3.68843 83.9213 4.76779 83.9213 5.94088C83.9213 7.6646 85.4596 9.14101 87.3521 9.14101C88.0226 9.14101 88.6932 8.95171 89.2456 8.61086C89.3049 8.78129 89.3239 8.93264 89.3239 9.08481C89.3239 10.012 88.457 10.8069 87.0177 10.8069C84.7306 10.8069 82.6993 8.83749 81.9892 3.82071L80.0569 4.35106C81.161 10.5604 84.1187 13.079 87.372 13.079C89.9549 13.079 91.2372 11.5456 91.2372 9.57701C91.2372 8.21381 90.6253 7.00197 89.3049 5.92262C88.6741 6.7366 87.8658 7.28581 87.0756 7.28581C86.4464 7.28581 86.012 6.90682 86.012 6.3006C86.012 5.46856 86.8394 4.40888 88.0036 3.61316C89.0283 5.24173 90.5461 6.09304 92.2816 6.09304C92.3601 6.09304 92.4196 6.09304 92.4989 6.09304C92.2222 6.94496 92.0852 7.9103 92.0852 8.91438C92.0852 9.95499 92.2421 11.6392 92.6764 13.6274L94.53 13.2868C94.175 11.5265 94.0958 10.3711 94.0958 9.48186C94.0958 7.47429 94.4896 6.39575 95.1807 5.33607L93.7613 3.72738C92.9331 4.04896 92.0455 4.16156 91.631 4.16156C90.7245 4.16156 89.9746 3.66936 89.4824 2.81825L89.5222 2.79837H95.9297H96.2055C97.2509 2.79837 97.6257 3.93494 97.6257 5.63878V13.2495L99.9716 13.5903V6.33955C99.9716 4.95728 100.071 3.76451 100.346 2.79837H101.725H102.14H109.456V3.55696C107.208 4.03009 104.585 4.99543 102.101 6.5471L103.462 9.16008C106.261 9.99293 108.273 11.4123 109.456 13.2495L111.802 13.5903V2.79837H113.95L113.537 0.924101H101.725H101.313H98.4928C98.3349 1.34184 98.1972 1.75776 98.0783 2.17469C97.6843 1.32277 97.1517 0.924101 96.3235 0.924101H95.8902H95.5152H79.9975H79.5838H76.764C76.6072 1.34184 76.4684 1.75776 76.3504 2.17469C75.9557 1.32277 75.424 0.924101 74.5956 0.924101H74.1622H73.7873H61.9375L62.3512 2.79837H70.0808V3.55696C67.8324 4.03009 65.2107 4.99543 62.7261 6.5471L64.0861 9.16008C66.8853 9.99293 68.8967 11.4123 70.0808 13.2495L72.4257 13.5903V2.79837H74.2002H74.4769C75.5222 2.79837 75.8963 3.93494 75.8963 5.63878V13.2495L78.2437 13.5903V6.33955C78.2437 4.95728 78.3411 3.76451 78.6178 2.79837H79.9975H80.412Z" fill="#21305A"/>
<path d="M105.255 11.3556C104.388 11.3556 103.855 11.904 103.855 12.6806C103.855 13.4003 104.388 13.9868 105.235 13.9868C106.123 13.9868 106.655 13.4003 106.655 12.6806C106.655 11.904 106.123 11.3556 105.255 11.3556Z" fill="#21305A"/>
<path d="M99.4019 36.1404L99.3147 36.1049L99.2228 36.0834C96.1677 35.3122 93.0347 34.4984 89.9137 33.6621C85.9647 32.5083 85.9647 30.7625 85.9647 30.1877C85.9647 29.0371 86.4663 28.1669 87.541 27.4481C88.7725 26.6222 90.5804 26.2038 92.9112 26.2038C95.2356 26.2038 97.0758 26.6571 98.3812 27.551C99.5794 28.3721 100.232 29.4326 100.374 30.7925L100.666 33.5885L104.913 30.0262L104.744 29.1607C104.251 26.6475 102.9 24.6568 100.729 23.2445C98.6632 21.902 96.0028 21.2211 92.8215 21.2211C89.6593 21.2211 86.9078 22.0248 84.6452 23.6107C82.216 25.3129 80.9837 27.5392 80.9837 30.2283C80.9837 32.7104 82.0338 36.0651 87.0338 37.9538L87.1908 38.0053C90.1326 38.7582 93.1686 39.5308 96.4696 40.3669C100 41.4901 100.411 43.0813 100.411 44.183C100.411 45.4772 99.8371 46.4512 98.6054 47.2477C97.2026 48.1575 95.3466 48.6188 93.0887 48.6188C90.6208 48.6188 88.6148 48.0997 87.1232 47.0773C85.7253 46.1223 84.9264 44.7497 84.6801 42.8833L84.4074 40.8147L79.7939 43.0893L80.0159 44.2122C80.6578 47.4641 82.1827 49.9106 84.5539 51.4901C86.6763 52.8913 89.4414 53.6006 92.7732 53.6006C96.4641 53.6006 99.4835 52.774 101.75 51.1454C104.167 49.4034 105.393 47.0282 105.393 44.084C105.393 41.5321 104.354 38.0822 99.4019 36.1404Z" fill="#B81E25"/>
<path d="M168.933 40.9683C168.933 43.0939 168.101 44.8517 166.39 46.3393C164.615 47.8807 162.38 48.6296 159.555 48.6296C157.07 48.6296 155.136 48.1145 153.807 47.0961C152.567 46.1514 151.989 45.0118 151.989 43.5098C151.989 41.5587 152.661 40.1377 154.044 39.163C155.572 38.0851 158.093 37.5407 161.536 37.5407C163.953 37.5407 165.988 37.703 167.586 38.0201C168.254 38.1548 168.676 38.2737 168.933 38.3624V40.9683ZM162.126 21.2201C158.707 21.2201 155.858 21.973 153.649 23.4606C151.962 24.6105 150.774 26.0466 150.12 27.7283L149.766 28.6374L152.413 31.2853L153.416 29.7296C153.861 29.0408 154.58 28.3877 155.554 27.7886C157.265 26.7362 159.4 26.2036 161.894 26.2036C164.262 26.2036 166.077 26.6702 167.293 27.5897C168.397 28.4266 168.933 29.7509 168.933 31.6404V32.2196C168.819 32.2632 168.64 32.3194 168.369 32.371C167.28 32.5771 165.159 32.6816 162.065 32.6816C157.331 32.6816 153.642 33.5716 151.101 35.3232C148.384 37.1958 147.007 39.9143 147.007 43.4029C147.007 46.4764 148.228 48.9942 150.636 50.8884C152.936 52.6953 156.012 53.613 159.776 53.613C162.356 53.613 164.76 53.0202 166.919 51.8513C167.655 51.451 168.327 50.9961 168.933 50.4826V53.6226H173.854V31.248C173.854 26.6751 171.818 21.2201 162.126 21.2201Z" fill="#B81E25"/>
<path d="M129.449 40.9697C129.449 43.0954 128.617 44.8532 126.906 46.3407C125.131 47.8822 122.896 48.6311 120.07 48.6311C117.586 48.6311 115.652 48.116 114.321 47.1C113.083 46.1529 112.505 45.0133 112.505 43.5113C112.505 41.5601 113.176 40.1391 114.559 39.1645C116.087 38.0865 118.608 37.5422 122.052 37.5422C124.468 37.5422 126.503 37.7045 128.103 38.0216C128.771 38.1563 129.19 38.2752 129.449 38.3639V40.9697ZM122.64 21.2216C119.223 21.2216 116.373 21.9745 114.165 23.4629C112.476 24.6128 111.288 26.0497 110.635 27.7306L110.283 28.6389L112.929 31.2868L113.932 29.731C114.376 29.0431 115.094 28.39 116.07 27.79C117.782 26.7376 119.915 26.2051 122.408 26.2051C124.777 26.2051 126.593 26.6717 127.809 27.5912C128.912 28.4281 129.449 29.7523 129.449 31.6418V32.2211C129.334 32.2647 129.155 32.3209 128.883 32.3724C127.795 32.5786 125.674 32.683 122.579 32.683C117.846 32.683 114.156 33.5731 111.616 35.3246C108.9 37.1973 107.521 39.9157 107.521 43.4044C107.521 46.4794 108.743 48.998 111.151 50.8898C113.452 52.6968 116.527 53.6145 120.291 53.6145C122.872 53.6145 125.274 53.0217 127.434 51.8527C128.17 51.4525 128.843 50.9976 129.449 50.484V53.624H134.368V31.2494C134.368 26.6766 132.334 21.2216 122.64 21.2216Z" fill="#B81E25"/>
<path d="M139.166 53.7979H144.17V9.30064H139.166V53.7979Z" fill="#B81E25"/>
<path d="M71.4102 40.9697C71.4102 43.0954 70.5789 44.8532 68.8662 46.3407C67.0933 47.8822 64.8575 48.6311 62.0323 48.6311C59.5476 48.6311 57.6147 48.116 56.2833 47.0976C55.0437 46.1529 54.4667 45.0133 54.4667 43.5113C54.4667 41.5601 55.1389 40.1391 56.5217 39.1645C58.0499 38.0865 60.5699 37.5422 64.0143 37.5422C66.4299 37.5422 68.4653 37.7045 70.0644 38.0216C70.7317 38.1563 71.1519 38.2752 71.4102 38.3639V40.9697ZM64.6017 21.2216C61.1843 21.2216 58.3351 21.9745 56.1255 23.4629C54.4375 24.612 53.2502 26.048 52.5973 27.7306L52.2445 28.6389L54.8891 31.2868L55.8942 29.731C56.3379 29.0422 57.0567 28.3891 58.0316 27.79C59.7434 26.7376 61.8769 26.2051 64.371 26.2051C66.7375 26.2051 68.5556 26.6717 69.7696 27.5912C70.8737 28.4281 71.4102 29.7523 71.4102 31.6418V32.2211C71.2961 32.2647 71.1162 32.3209 70.8459 32.3724C69.7562 32.5786 67.6355 32.683 64.5414 32.683C59.7411 32.683 56.1549 33.5477 53.5768 35.3246C50.8616 37.1973 49.4834 39.9157 49.4834 43.4044C49.4834 46.4794 50.7046 48.9957 53.1132 50.8898C55.4138 52.6968 58.4889 53.6145 62.2533 53.6145C64.8338 53.6145 67.2368 53.0217 69.3955 51.8527C70.1318 51.4525 70.8031 50.9976 71.4102 50.484V53.624H76.331V31.2494C76.331 26.6766 74.2966 21.2216 64.6017 21.2216Z" fill="#B81E25"/>
<path d="M35.5901 21.2203C32.8473 21.2203 30.4238 21.8622 28.387 23.1294C27.1744 23.8823 26.1409 24.8185 25.296 25.9262C24.5756 24.858 23.6555 23.9426 22.5421 23.1897C20.6114 21.8821 18.2505 21.2203 15.529 21.2203C12.8067 21.2203 10.3697 21.9312 8.28292 23.3339C7.65842 23.7539 7.08066 24.2264 6.55285 24.7495V21.3296H1.48543V53.5498H6.55285V35.3828C6.55285 32.7079 7.31684 30.534 8.88684 28.7399C10.4053 27.0033 12.3843 26.1577 14.9322 26.1577C19.8736 26.1577 22.076 28.2992 22.076 33.0987V53.5498H27.1449V33.8636C27.1449 31.6738 27.8979 29.8858 29.4481 28.3958C31.0134 26.8899 33.0201 26.1577 35.5822 26.1577C40.4833 26.1577 42.6674 28.2992 42.6674 33.0987V53.5498H47.7365V32.9203C47.7365 29.1645 46.6468 26.2387 44.4982 24.2199C42.3758 22.23 39.3792 21.2203 35.5901 21.2203Z" fill="#B81E25"/>
<path d="M347.976 21.2217C345.002 21.2217 342.427 21.8947 340.309 23.2244C339.422 23.784 338.623 24.4545 337.907 25.232V21.4063H332.841V53.6479H337.907V36.9059C337.907 33.7341 338.834 31.2218 340.751 29.2262C342.644 27.2513 345.049 26.29 348.094 26.29H350.06V21.2217H347.976Z" fill="#21305A"/>
<path d="M310.039 39.163C311.569 38.0851 314.091 37.5407 317.534 37.5407C319.95 37.5407 321.985 37.703 323.584 38.0201C324.251 38.1548 324.673 38.2737 324.929 38.3624V40.9683C324.929 43.0939 324.097 44.8517 322.387 46.3393C320.615 47.8807 318.378 48.6296 315.551 48.6296C313.066 48.6296 311.133 48.1145 309.804 47.0985C308.562 46.1514 307.986 45.0118 307.986 43.5098C307.986 41.5587 308.659 40.1377 310.039 39.163ZM306.632 50.8884C308.933 52.6953 312.009 53.613 315.77 53.613C318.355 53.613 320.755 53.0202 322.916 51.8513C323.653 51.451 324.322 50.9961 324.929 50.4826V53.6226H329.849V31.248C329.849 26.6751 327.814 21.2201 318.118 21.2201C314.703 21.2201 311.853 21.973 309.647 23.4614C307.957 24.6105 306.772 26.0466 306.115 27.7291L305.764 28.6374L308.412 31.2853L309.414 29.7271C309.858 29.0408 310.577 28.3877 311.55 27.7886C313.265 26.7362 315.397 26.2036 317.891 26.2036C320.258 26.2036 322.078 26.6702 323.289 27.5897C324.393 28.4266 324.929 29.7509 324.929 31.6404V32.2196C324.817 32.2632 324.635 32.3194 324.367 32.371C323.275 32.5771 321.153 32.6816 318.061 32.6816C313.261 32.6816 309.672 33.5463 307.095 35.3232C304.38 37.1958 303.005 39.9118 303.005 43.4029C303.005 46.4764 304.226 48.9942 306.632 50.8884Z" fill="#21305A"/>
<path d="M186.305 29.0102C188.471 26.9099 191.248 25.8892 194.799 25.8892C198.144 25.8876 200.793 26.9298 202.898 29.0719C205.01 31.2205 206.039 33.9166 206.039 37.3128C206.039 40.6334 205.031 43.2725 202.956 45.383C200.888 47.4871 198.276 48.5071 194.972 48.5071C191.259 48.5071 188.348 47.3191 186.078 44.8733C184.077 42.7018 183.104 40.2854 183.104 37.4854C183.104 33.8716 184.152 31.0993 186.305 29.0102ZM183.104 49.1039C183.974 49.9851 184.957 50.7404 186.048 51.3665C188.536 52.7931 191.375 53.5159 194.492 53.5159C199.299 53.5159 203.297 52.018 206.378 49.0658C209.476 46.0962 211.046 42.1415 211.046 37.3128C211.046 32.4585 209.514 28.4657 206.495 25.4398C203.475 22.4148 199.485 20.8812 194.637 20.8795C191.645 20.8795 188.82 21.6325 186.236 23.1137C185.069 23.7835 184.023 24.5983 183.104 25.5516V9.48543H178.095V53.6094H183.104V49.1039Z" fill="#21305A"/>
<path d="M272.119 48.6506H251.654L272.204 24.2201L272.154 21.3101H242.952V26.3512H263.551L243.098 50.7809L243.102 53.6895H272.119V48.6506Z" fill="#21305A"/>
<path d="M292.44 46.3393C290.665 47.8807 288.433 48.6296 285.605 48.6296C283.12 48.6296 281.186 48.1145 279.857 47.0985C278.618 46.1514 278.04 45.0118 278.04 43.5098C278.04 41.5587 278.713 40.1377 280.093 39.163C281.623 38.0851 284.144 37.5407 287.589 37.5407C290.004 37.5407 292.039 37.703 293.64 38.0201C294.307 38.1548 294.727 38.2737 294.983 38.3624V40.9683C294.983 43.0939 294.153 44.8517 292.44 46.3393ZM299.907 31.248C299.907 26.6751 297.872 21.2201 288.178 21.2201C284.759 21.2201 281.909 21.973 279.701 23.4614C278.011 24.6105 276.826 26.0466 276.173 27.7283L275.818 28.6374L278.466 31.2853L279.47 29.7271C279.91 29.0408 280.633 28.3885 281.604 27.7886C283.317 26.7362 285.451 26.2036 287.945 26.2036C290.312 26.2036 292.13 26.6702 293.343 27.5897C294.447 28.4266 294.983 29.7509 294.983 31.6404V32.2196C294.871 32.2632 294.691 32.3194 294.423 32.371C293.333 32.5771 291.211 32.6816 288.115 32.6816C283.313 32.6816 279.728 33.5463 277.149 35.3232C274.434 37.1958 273.055 39.9143 273.055 43.4029C273.055 46.4779 274.28 48.9966 276.688 50.8884C278.987 52.6953 282.063 53.613 285.824 53.613C288.409 53.613 290.811 53.0202 292.97 51.8513C293.707 51.451 294.378 50.9961 294.983 50.4826V53.6226H299.907V31.248Z" fill="#21305A"/>
<path d="M220.579 39.1645C222.107 38.0865 224.627 37.5422 228.074 37.5422C230.488 37.5422 232.523 37.7045 234.122 38.0216C234.789 38.1563 235.209 38.2752 235.467 38.3639V40.9697C235.467 43.0954 234.635 44.8532 232.925 46.3407C231.152 47.8822 228.916 48.6311 226.09 48.6311C223.604 48.6311 221.671 48.116 220.342 47.1C219.102 46.1529 218.524 45.0133 218.524 43.5113C218.524 41.5601 219.198 40.1391 220.579 39.1645ZM217.171 50.8898C219.471 52.6968 222.547 53.6145 226.311 53.6145C228.893 53.6145 231.296 53.0217 233.452 51.8527C234.189 51.4525 234.862 50.9976 235.467 50.484V53.624H240.389V31.2494C240.389 26.6766 238.354 21.2216 228.66 21.2216C225.241 21.2216 222.393 21.9745 220.184 23.4629C218.496 24.6128 217.309 26.048 216.655 27.7306L216.302 28.6389L218.948 31.2868L219.954 29.7286C220.395 29.043 221.115 28.39 222.089 27.79C223.801 26.7376 225.935 26.2051 228.429 26.2051C230.797 26.2051 232.614 26.6717 233.826 27.5912C234.931 28.4281 235.467 29.7523 235.467 31.6418V32.2211C235.353 32.2647 235.175 32.3209 234.905 32.3724C233.818 32.5786 231.695 32.683 228.599 32.683C223.864 32.683 220.175 33.5731 217.635 35.3246C214.919 37.1973 213.541 39.9157 213.541 43.4044C213.541 46.4794 214.762 48.998 217.171 50.8898Z" fill="#21305A"/>
<path d="M185.581 62.2422C185.355 63.0545 185.169 63.7797 185.056 64.4771H185.013C184.856 63.7797 184.658 63.0545 184.4 62.2287L183.333 58.7828H182.278L181.153 62.3C180.925 63.0387 180.697 63.7797 180.541 64.4771H180.499C180.37 63.7662 180.184 63.0545 179.986 62.2858L179.073 58.7828H177.792L179.871 65.6738H181.012L182.122 62.3991C182.363 61.6597 182.577 60.9472 182.748 60.1206H182.776C182.947 60.9329 183.148 61.6161 183.39 62.3848L184.444 65.6738H185.581L187.804 58.7828H186.564L185.581 62.2422Z" fill="#21305A"/>
<path d="M196.228 62.2422C196 63.0545 195.816 63.7797 195.703 64.4771H195.66C195.503 63.7797 195.303 63.0545 195.047 62.2287L193.977 58.7828H192.923L191.798 62.3C191.572 63.0387 191.342 63.7797 191.187 64.4771H191.144C191.016 63.7662 190.831 63.0545 190.631 62.2858L189.719 58.7828H188.438L190.518 65.6738H191.658L192.769 62.3991C193.01 61.6597 193.224 60.9472 193.395 60.1206H193.422C193.593 60.9329 193.792 61.6161 194.035 62.3848L195.089 65.6738H196.228L198.449 58.7828H197.211L196.228 62.2422Z" fill="#21305A"/>
<path d="M206.874 62.2422C206.646 63.0545 206.462 63.7797 206.348 64.4771H206.304C206.149 63.7797 205.948 63.0545 205.693 62.2287L204.624 58.7828H203.57L202.444 62.3C202.216 63.0387 201.989 63.7797 201.832 64.4771H201.788C201.661 63.7662 201.475 63.0545 201.277 62.2858L200.366 58.7828H199.084L201.162 65.6738H202.303L203.414 62.3991C203.657 61.6597 203.871 60.9472 204.041 60.1206H204.07C204.238 60.9329 204.439 61.6161 204.68 62.3848L205.735 65.6738H206.874L209.095 58.7828H207.858L206.874 62.2422Z" fill="#21305A"/>
<path d="M210.344 64.0371C209.845 64.0371 209.488 64.4057 209.488 64.9327C209.488 65.4478 209.829 65.833 210.328 65.833C210.856 65.833 211.184 65.4478 211.184 64.9327C211.184 64.4057 210.842 64.0371 210.344 64.0371Z" fill="#21305A"/>
<path d="M220.31 58.6243C219.655 58.6243 219.201 58.7971 218.785 59.1101C218.501 59.3241 218.231 59.6229 218.018 60.0073H217.989C217.689 59.1949 216.979 58.6243 216.038 58.6243C214.897 58.6243 214.258 59.2393 213.875 59.8924H213.83L213.773 58.7828H212.678C212.718 59.3519 212.735 59.9359 212.735 60.6476V65.6738H213.96V61.517C213.96 61.3031 213.986 61.0891 214.057 60.9028C214.258 60.2767 214.826 59.6506 215.611 59.6506C216.565 59.6506 217.05 60.4479 217.05 61.5448V65.6738H218.273V61.4164C218.273 61.1881 218.316 60.9607 218.373 60.7903C218.588 60.1777 219.142 59.6506 219.856 59.6506C220.866 59.6506 221.351 60.4479 221.351 61.773V65.6738H222.577V61.6161C222.577 59.2227 221.223 58.6243 220.31 58.6243Z" fill="#21305A"/>
<path d="M228.238 63.354C228.238 63.4832 228.209 63.625 228.165 63.7518C227.966 64.3367 227.398 64.905 226.499 64.905C225.86 64.905 225.316 64.5206 225.316 63.7082C225.316 62.3713 226.87 62.1272 228.238 62.1573V63.354ZM229.447 61.4456C229.447 60.0626 228.936 58.6242 226.826 58.6242C225.959 58.6242 225.132 58.8683 224.564 59.2392L224.848 60.0626C225.333 59.7496 226.002 59.5522 226.641 59.5522C228.051 59.5522 228.209 60.5762 228.209 61.1468V61.2871C225.546 61.2752 224.064 62.1866 224.064 63.8509C224.064 64.8495 224.777 65.833 226.172 65.833C227.154 65.833 227.897 65.3472 228.28 64.8059H228.323L228.42 65.6737H229.563C229.475 65.2045 229.447 64.6197 229.447 64.0213V61.4456Z" fill="#21305A"/>
<path d="M233.685 61.672C232.79 61.3312 232.376 61.076 232.376 60.5054C232.376 59.9926 232.79 59.5662 233.529 59.5662C234.168 59.5662 234.671 59.7937 234.939 59.9641L235.253 59.0535C234.868 58.8252 234.255 58.6247 233.559 58.6247C232.076 58.6247 231.179 59.5361 231.179 60.648C231.179 61.4738 231.764 62.1578 233.001 62.5992C233.926 62.94 234.286 63.2689 234.286 63.8673C234.286 64.4363 233.855 64.892 232.944 64.892C232.318 64.892 231.664 64.636 231.293 64.3943L230.979 65.3477C231.463 65.633 232.161 65.8169 232.916 65.8169C234.555 65.8169 235.495 64.9633 235.495 63.7524C235.495 62.726 234.884 62.1277 233.685 61.672Z" fill="#21305A"/>
<path d="M240.732 63.354C240.732 63.4832 240.704 63.625 240.661 63.7518C240.46 64.3367 239.892 64.905 238.993 64.905C238.354 64.905 237.81 64.5206 237.81 63.7082C237.81 62.3713 239.365 62.1272 240.732 62.1573V63.354ZM241.941 61.4456C241.941 60.0626 241.43 58.6242 239.32 58.6242C238.452 58.6242 237.628 58.8683 237.056 59.2392L237.342 60.0626C237.825 59.7496 238.496 59.5522 239.137 59.5522C240.545 59.5522 240.704 60.5762 240.704 61.1468V61.2871C238.042 61.2752 236.557 62.1866 236.557 63.8509C236.557 64.8495 237.271 65.833 238.667 65.833C239.651 65.833 240.391 65.3472 240.775 64.8059H240.817L240.917 65.6737H242.055C241.97 65.2045 241.941 64.6197 241.941 64.0213V61.4456Z" fill="#21305A"/>
<path d="M243.963 65.6738H245.215V55.5636H243.963V65.6738Z" fill="#21305A"/>
<path d="M250.953 63.354C250.953 63.4832 250.924 63.625 250.882 63.7518C250.681 64.3367 250.113 64.905 249.214 64.905C248.575 64.905 248.031 64.5206 248.031 63.7082C248.031 62.3713 249.585 62.1272 250.953 62.1573V63.354ZM252.164 61.4456C252.164 60.0626 251.651 58.6242 249.543 58.6242C248.674 58.6242 247.849 58.8683 247.278 59.2392L247.562 60.0626C248.047 59.7496 248.717 59.5522 249.358 59.5522C250.766 59.5522 250.924 60.5762 250.924 61.1468V61.2871C248.262 61.2752 246.779 62.1866 246.779 63.8509C246.779 64.8495 247.491 65.833 248.887 65.833C249.871 65.833 250.61 65.3472 250.995 64.8059H251.038L251.137 65.6737H252.275C252.19 65.2045 252.164 64.6197 252.164 64.0213V61.4456Z" fill="#21305A"/>
<path d="M257.355 64.8336C256.444 64.8336 255.718 64.2353 255.474 63.3675C255.448 63.2248 255.418 63.0687 255.418 62.9118V61.6715C255.418 61.4733 255.462 61.3029 255.489 61.1603C255.746 60.2053 256.544 59.6228 257.4 59.6228C258.737 59.6228 259.449 60.8036 259.449 62.1866C259.449 63.7661 258.666 64.8336 257.355 64.8336ZM257.795 58.6242C256.686 58.6242 255.888 59.1235 255.448 59.8922H255.418V55.5635H254.18V63.8945C254.18 64.5071 254.149 65.2045 254.121 65.6737H255.205L255.261 64.5364H255.304C255.817 65.4478 256.615 65.833 257.611 65.833C259.151 65.833 260.703 64.6062 260.703 62.143C260.717 60.0492 259.506 58.6242 257.795 58.6242Z" fill="#21305A"/>
<path d="M265.91 63.354C265.91 63.4832 265.881 63.625 265.839 63.7518C265.64 64.3367 265.07 64.905 264.173 64.905C263.532 64.905 262.99 64.5206 262.99 63.7082C262.99 62.3713 264.542 62.1272 265.91 62.1573V63.354ZM267.123 61.4456C267.123 60.0626 266.61 58.6242 264.502 58.6242C263.631 58.6242 262.806 58.8683 262.235 59.2392L262.519 60.0626C263.004 59.7496 263.674 59.5522 264.315 59.5522C265.725 59.5522 265.881 60.5762 265.881 61.1468V61.2871C263.219 61.2752 261.736 62.1866 261.736 63.8509C261.736 64.8495 262.448 65.833 263.844 65.833C264.828 65.833 265.569 65.3472 265.952 64.8059H265.997L266.096 65.6737H267.235C267.149 65.2045 267.123 64.6197 267.123 64.0213V61.4456Z" fill="#21305A"/>
<path d="M269.922 64.6499C270.236 64.2932 270.52 63.9501 270.804 63.5657L273.882 59.5658L273.894 58.7828H268.642V59.7933H272.373V59.821C272.058 60.1919 271.774 60.5184 271.474 60.8909L268.355 64.9487V65.6738H273.953V64.6776H269.922V64.6499Z" fill="#21305A"/>
<path d="M278.863 63.354C278.863 63.4832 278.834 63.625 278.792 63.7518C278.591 64.3367 278.023 64.905 277.124 64.905C276.485 64.905 275.941 64.5206 275.941 63.7082C275.941 62.3713 277.495 62.1272 278.863 62.1573V63.354ZM280.072 61.4456C280.072 60.0626 279.559 58.6242 277.451 58.6242C276.584 58.6242 275.757 58.8683 275.189 59.2392L275.473 60.0626C275.957 59.7496 276.627 59.5522 277.268 59.5522C278.676 59.5522 278.834 60.5762 278.834 61.1468V61.2871C276.173 61.2752 274.689 62.1866 274.689 63.8509C274.689 64.8495 275.402 65.833 276.797 65.833C277.781 65.833 278.522 65.3472 278.905 64.8059H278.948L279.047 65.6737H280.186C280.1 65.2045 280.072 64.6197 280.072 64.0213V61.4456Z" fill="#21305A"/>
<path d="M285.722 63.354C285.722 63.4832 285.694 63.625 285.649 63.7518C285.45 64.3367 284.882 64.905 283.983 64.905C283.344 64.905 282.801 64.5206 282.801 63.7082C282.801 62.3713 284.355 62.1272 285.722 62.1573V63.354ZM286.931 61.4456C286.931 60.0626 286.418 58.6242 284.31 58.6242C283.444 58.6242 282.616 58.8683 282.048 59.2392L282.332 60.0626C282.817 59.7496 283.486 59.5522 284.125 59.5522C285.536 59.5522 285.694 60.5762 285.694 61.1468V61.2871C283.03 61.2752 281.549 62.1866 281.549 63.8509C281.549 64.8495 282.261 65.833 283.657 65.833C284.639 65.833 285.379 65.3472 285.765 64.8059H285.807L285.905 65.6737H287.045C286.96 65.2045 286.931 64.6197 286.931 64.0213V61.4456Z" fill="#21305A"/>
<path d="M290.091 60.1341H290.034L289.989 58.7828H288.894C288.936 59.4232 288.95 60.1206 288.95 60.9329V65.6738H290.19V62.0005C290.19 61.7865 290.218 61.5891 290.247 61.4164C290.417 60.4772 291.044 59.8076 291.927 59.8076C292.099 59.8076 292.227 59.821 292.355 59.8488V58.6679C292.239 58.6402 292.142 58.6243 291.998 58.6243C291.158 58.6243 290.403 59.2092 290.091 60.1341Z" fill="#21305A"/>
<path d="M293.406 64.0371C292.907 64.0371 292.552 64.4057 292.552 64.9327C292.552 65.4478 292.893 65.833 293.392 65.833C293.919 65.833 294.246 65.4478 294.246 64.9327C294.246 64.4057 293.905 64.0371 293.406 64.0371Z" fill="#21305A"/>
<path d="M299.002 59.6376C299.683 59.6376 300.154 59.7937 300.452 59.9641L300.738 58.9972C300.395 58.8252 299.74 58.6406 299.002 58.6406C296.75 58.6406 295.297 60.1781 295.297 62.3004C295.297 64.4062 296.65 65.8169 298.73 65.8169C299.657 65.8169 300.381 65.5894 300.71 65.419L300.497 64.4775C300.14 64.636 299.671 64.8207 298.957 64.8207C297.589 64.8207 296.563 63.838 296.563 62.2426C296.563 60.8042 297.419 59.6376 299.002 59.6376Z" fill="#21305A"/>
<path d="M304.951 64.8915C303.727 64.8915 302.857 63.7518 302.857 62.2421C302.857 60.9328 303.496 59.5657 304.979 59.5657C306.46 59.5657 307.042 61.0453 307.042 62.2151C307.042 63.7661 306.148 64.8915 304.951 64.8915ZM305.005 58.6242C303.1 58.6242 301.591 59.9794 301.591 62.2857C301.591 64.4651 303.029 65.833 304.894 65.833C306.559 65.833 308.325 64.7211 308.325 62.1707C308.325 60.0626 306.988 58.6242 305.005 58.6242Z" fill="#21305A"/>
<path d="M317.478 58.6243C316.825 58.6243 316.369 58.7971 315.955 59.1101C315.669 59.3241 315.401 59.6229 315.186 60.0073H315.155C314.859 59.1949 314.145 58.6243 313.204 58.6243C312.067 58.6243 311.426 59.2393 311.041 59.8924H310.998L310.941 58.7828H309.844C309.888 59.3519 309.903 59.9359 309.903 60.6476V65.6738H311.126V61.517C311.126 61.3031 311.156 61.0891 311.227 60.9028C311.426 60.2767 311.996 59.6506 312.78 59.6506C313.731 59.6506 314.218 60.4479 314.218 61.5448V65.6738H315.441V61.4164C315.441 61.1881 315.486 60.9607 315.541 60.7903C315.754 60.1777 316.312 59.6506 317.022 59.6506C318.032 59.6506 318.519 60.4479 318.519 61.773V65.6738H319.743V61.6161C319.743 59.2227 318.389 58.6243 317.478 58.6243Z" fill="#21305A"/>
<path d="M322.328 64.0371C321.827 64.0371 321.474 64.4057 321.474 64.9327C321.474 65.4478 321.814 65.833 322.314 65.833C322.841 65.833 323.168 65.4478 323.168 64.9327C323.168 64.4057 322.827 64.0371 322.328 64.0371Z" fill="#21305A"/>
<path d="M327.894 64.8336C326.983 64.8336 326.255 64.2353 326.013 63.3675C325.985 63.2248 325.959 63.0687 325.959 62.9118V61.6715C325.959 61.4733 325.999 61.3029 326.03 61.1603C326.285 60.2053 327.083 59.6228 327.937 59.6228C329.274 59.6228 329.988 60.8036 329.988 62.1866C329.988 63.7661 329.203 64.8336 327.894 64.8336ZM328.334 58.6242C327.227 58.6242 326.427 59.1235 325.985 59.8922H325.959V55.5635H324.717V63.8945C324.717 64.5071 324.689 65.2045 324.66 65.6737H325.744L325.798 64.5364H325.843C326.356 65.4478 327.154 65.833 328.15 65.833C329.688 65.833 331.24 64.6062 331.24 62.143C331.256 60.0492 330.043 58.6242 328.334 58.6242Z" fill="#21305A"/>
<path d="M337.516 62.7834C337.516 62.9839 337.502 63.1535 337.46 63.3239C337.23 64.2654 336.461 64.8202 335.622 64.8202C334.268 64.8202 333.585 63.667 333.585 62.2698C333.585 60.7482 334.353 59.6069 335.652 59.6069C336.591 59.6069 337.275 60.2631 337.46 61.0612C337.502 61.2158 337.516 61.4297 337.516 61.589V62.7834ZM338.77 55.5635H337.516V59.679H337.486C337.174 59.1235 336.461 58.6242 335.408 58.6242C333.729 58.6242 332.304 60.0349 332.316 62.3277C332.316 64.4215 333.599 65.833 335.266 65.833C336.39 65.833 337.23 65.2481 337.616 64.477H337.644L337.701 65.6737H338.825C338.782 65.2045 338.77 64.5071 338.77 63.8945V55.5635Z" fill="#21305A"/>
</svg>
