<svg width="23" height="23" viewBox="0 0 23 23" fill="none" xmlns="http://www.w3.org/2000/svg">
<g clip-path="url(#clip0_111_2262)">
<path d="M8.81615 20.8205C9.31618 20.8205 9.72154 20.4152 9.72154 19.9152C9.72154 19.4151 9.31618 19.0098 8.81615 19.0098C8.31612 19.0098 7.91077 19.4151 7.91077 19.9152C7.91077 20.4152 8.31612 20.8205 8.81615 20.8205Z" stroke="white" stroke-width="2" stroke-linecap="round" stroke-linejoin="round"/>
<path d="M18.7751 20.8205C19.2752 20.8205 19.6805 20.4152 19.6805 19.9152C19.6805 19.4151 19.2752 19.0098 18.7751 19.0098C18.2751 19.0098 17.8698 19.4151 17.8698 19.9152C17.8698 20.4152 18.2751 20.8205 18.7751 20.8205Z" stroke="white" stroke-width="2" stroke-linecap="round" stroke-linejoin="round"/>
<path d="M1.57288 1.80713H5.19442L7.62085 13.9302C7.70364 14.3471 7.93041 14.7215 8.26145 14.988C8.59249 15.2545 9.00672 15.3961 9.43162 15.3879H18.232C18.6569 15.3961 19.0711 15.2545 19.4021 14.988C19.7332 14.7215 19.9599 14.3471 20.0427 13.9302L21.4914 6.33406H6.0998" stroke="white" stroke-width="2" stroke-linecap="round" stroke-linejoin="round"/>
</g>
<defs>
<clipPath id="clip0_111_2262">
<rect width="21.7292" height="21.7292" fill="white" transform="translate(0.667603 0.901855)"/>
</clipPath>
</defs>
</svg>
