<svg width="23" height="23" viewBox="0 0 23 23" fill="none" xmlns="http://www.w3.org/2000/svg">
<g clip-path="url(#clip0_231_855)">
<path d="M22.0756 21.1918L18.3656 17.5118C19.8057 15.7162 20.5031 13.4371 20.3144 11.1431C20.1257 8.84906 19.0653 6.71454 17.3511 5.1784C15.637 3.64227 13.3994 2.82127 11.0985 2.88423C8.79767 2.94719 6.60835 3.88932 4.98077 5.5169C3.35319 7.14448 2.41106 9.3338 2.3481 11.6347C2.28514 13.9356 3.10613 16.1731 4.64227 17.8873C6.17841 19.6014 8.31293 20.6619 10.6069 20.8506C12.9009 21.0393 15.18 20.3419 16.9756 18.9018L20.6556 22.5818C20.7486 22.6755 20.8592 22.7499 20.9811 22.8007C21.1029 22.8514 21.2336 22.8776 21.3656 22.8776C21.4976 22.8776 21.6283 22.8514 21.7502 22.8007C21.8721 22.7499 21.9827 22.6755 22.0756 22.5818C22.2559 22.3953 22.3566 22.1461 22.3566 21.8868C22.3566 21.6274 22.2559 21.3782 22.0756 21.1918V21.1918ZM11.3656 18.9018C9.98116 18.9018 8.62778 18.4912 7.47664 17.722C6.32549 16.9529 5.42828 15.8596 4.89847 14.5805C4.36866 13.3015 4.23003 11.894 4.50013 10.5361C4.77023 9.17826 5.43691 7.93098 6.41588 6.95201C7.39485 5.97304 8.64213 5.30636 10 5.03626C11.3579 4.76617 12.7653 4.90479 14.0444 5.4346C15.3235 5.96442 16.4167 6.86162 17.1859 8.01277C17.9551 9.16391 18.3656 10.5173 18.3656 11.9018C18.3656 13.7583 17.6281 15.5388 16.3154 16.8515C15.0026 18.1643 13.2221 18.9018 11.3656 18.9018V18.9018Z" fill="url(#paint0_linear_231_855)"/>
</g>
<defs>
<linearGradient id="paint0_linear_231_855" x1="2.34473" y1="2.88086" x2="25.7946" y2="17.2778" gradientUnits="userSpaceOnUse">
<stop stop-color="#F3F9FF"/>
<stop offset="1" stop-color="#F1F0FF"/>
</linearGradient>
<clipPath id="clip0_231_855">
<rect width="21.7292" height="21.7292" fill="white" transform="translate(0.365723 0.901855)"/>
</clipPath>
</defs>
</svg>
