<svg width="17" height="17" viewBox="0 0 17 17" fill="none" xmlns="http://www.w3.org/2000/svg">
<path d="M13.6891 3.57353C12.9813 2.86554 12.0429 2.43509 11.0446 2.36046C10.0463 2.28583 9.05432 2.57198 8.24913 3.16687C7.4009 2.53596 6.34512 2.24988 5.29441 2.36623C4.24369 2.48258 3.27609 2.99272 2.58644 3.79392C1.8968 4.59513 1.53634 5.62788 1.57766 6.68421C1.61898 7.74054 2.059 8.74198 2.80913 9.48687L7.77579 14.4535C7.83777 14.516 7.9115 14.5656 7.99274 14.5995C8.07398 14.6333 8.16112 14.6507 8.24913 14.6507C8.33713 14.6507 8.42427 14.6333 8.50551 14.5995C8.58675 14.5656 8.66048 14.516 8.72246 14.4535L13.6891 9.48687C14.0776 9.09868 14.3857 8.63776 14.5959 8.13045C14.8062 7.62313 14.9144 7.07935 14.9144 6.5302C14.9144 5.98105 14.8062 5.43728 14.5959 4.92996C14.3857 4.42264 14.0776 3.96172 13.6891 3.57353V3.57353ZM12.7491 8.54687L8.24913 13.0402L3.74913 8.54687C3.35258 8.14867 3.08244 7.64223 2.97261 7.09109C2.86278 6.53996 2.91815 5.96866 3.13176 5.44886C3.34537 4.92907 3.70772 4.48393 4.17336 4.16928C4.63899 3.85464 5.18717 3.68449 5.74913 3.6802C6.49987 3.68204 7.21919 3.98176 7.74913 4.51353C7.8111 4.57602 7.88483 4.62562 7.96607 4.65946C8.04731 4.69331 8.13445 4.71073 8.22246 4.71073C8.31047 4.71073 8.3976 4.69331 8.47884 4.65946C8.56008 4.62562 8.63382 4.57602 8.69579 4.51353C9.24134 4.04079 9.94612 3.79296 10.6675 3.82022C11.3889 3.84747 12.0729 4.14777 12.5812 4.66033C13.0896 5.17289 13.3842 5.85943 13.4054 6.58099C13.4267 7.30256 13.173 8.00526 12.6958 8.54687H12.7491Z" fill="#1D1D1F"/>
</svg>
