<svg width="16" height="16" viewBox="0 0 16 16" fill="none" xmlns="http://www.w3.org/2000/svg">
<path d="M12.6667 2.6665H3.33333C2.8029 2.6665 2.29419 2.87722 1.91912 3.25229C1.54405 3.62736 1.33333 4.13607 1.33333 4.6665V11.3332C1.33333 11.8636 1.54405 12.3723 1.91912 12.7474C2.29419 13.1225 2.8029 13.3332 3.33333 13.3332H12.6667C13.1971 13.3332 13.7058 13.1225 14.0809 12.7474C14.456 12.3723 14.6667 11.8636 14.6667 11.3332V4.6665C14.6667 4.13607 14.456 3.62736 14.0809 3.25229C13.7058 2.87722 13.1971 2.6665 12.6667 2.6665V2.6665ZM3.33333 3.99984H12.6667C12.8435 3.99984 13.013 4.07008 13.1381 4.1951C13.2631 4.32012 13.3333 4.48969 13.3333 4.6665L8 7.91984L2.66667 4.6665C2.66667 4.48969 2.7369 4.32012 2.86193 4.1951C2.98695 4.07008 3.15652 3.99984 3.33333 3.99984V3.99984ZM13.3333 11.3332C13.3333 11.51 13.2631 11.6796 13.1381 11.8046C13.013 11.9296 12.8435 11.9998 12.6667 11.9998H3.33333C3.15652 11.9998 2.98695 11.9296 2.86193 11.8046C2.7369 11.6796 2.66667 11.51 2.66667 11.3332V6.1865L7.65333 9.23317C7.75468 9.29168 7.86964 9.32249 7.98667 9.32249C8.10369 9.32249 8.21865 9.29168 8.32 9.23317L13.3333 6.1865V11.3332Z" fill="#1D1D1F"/>
</svg>
