<svg width="30" height="28" viewBox="0 0 30 28" fill="none" xmlns="http://www.w3.org/2000/svg">
<path d="M27.3197 2.98636C25.7714 1.43762 23.7186 0.496 21.5348 0.332747C19.3509 0.169494 17.181 0.795448 15.4197 2.09677C13.5642 0.716662 11.2547 0.0908534 8.95622 0.345371C6.65779 0.599888 4.54115 1.71583 3.03255 3.46846C1.52395 5.2211 0.735455 7.48024 0.825841 9.79096C0.916227 12.1017 1.87878 14.2923 3.51967 15.9218L14.3843 26.7864C14.5198 26.923 14.6811 27.0315 14.8588 27.1056C15.0365 27.1796 15.2272 27.2177 15.4197 27.2177C15.6122 27.2177 15.8028 27.1796 15.9805 27.1056C16.1582 27.0315 16.3195 26.923 16.4551 26.7864L27.3197 15.9218C28.1694 15.0726 28.8434 14.0644 29.3033 12.9546C29.7632 11.8448 29.9999 10.6553 29.9999 9.45407C29.9999 8.25279 29.7632 7.06329 29.3033 5.95353C28.8434 4.84377 28.1694 3.83551 27.3197 2.98636ZM25.2634 13.8655L15.4197 23.6947L5.57592 13.8655C4.70847 12.9945 4.11755 11.8866 3.8773 10.681C3.63705 9.47541 3.75816 8.22569 4.22544 7.08864C4.69272 5.95159 5.48536 4.97785 6.50393 4.28956C7.5225 3.60127 8.72164 3.22908 9.95092 3.21969C11.5932 3.22371 13.1667 3.87935 14.3259 5.04261C14.4615 5.1793 14.6228 5.28779 14.8005 5.36182C14.9782 5.43586 15.1688 5.47398 15.3613 5.47398C15.5539 5.47398 15.7445 5.43586 15.9222 5.36182C16.0999 5.28779 16.2612 5.1793 16.3968 5.04261C17.5901 4.00848 19.1318 3.46636 20.7098 3.52598C22.2878 3.58559 23.7842 4.24249 24.8962 5.36372C26.0082 6.48494 26.6526 7.98675 26.6991 9.56518C26.7456 11.1436 26.1908 12.6808 25.1468 13.8655H25.2634Z" fill="#FF6E6E"/>
</svg>
